<svg width="40" height="44" viewBox="0 0 40 44" fill="none" xmlns="http://www.w3.org/2000/svg">
<path fill-rule="evenodd" clip-rule="evenodd" d="M20 39.819C31.0457 39.819 40 30.9052 40 19.9095C40 8.91379 31.0457 0 20 0C8.9543 0 0 8.91379 0 19.9095C0 23.949 1.20849 27.7076 3.28521 30.8464L3.80002 44L10.5366 37.4536C13.3539 38.9627 16.5765 39.819 20 39.819Z" fill="#0057A5"/>
<path d="M18.944 23.192V22.328C18.944 21.8907 19.024 21.4853 19.184 21.112C19.344 20.7387 19.616 20.3547 20 19.96C20.256 19.6933 20.432 19.4693 20.528 19.288C20.6347 19.1067 20.688 18.9147 20.688 18.712C20.688 18.2107 20.336 17.96 19.632 17.96C18.6933 17.96 17.792 18.2853 16.928 18.936L16.016 16.792C16.5067 16.408 17.0987 16.104 17.792 15.88C18.4853 15.656 19.1733 15.544 19.856 15.544C20.592 15.544 21.2373 15.6613 21.792 15.896C22.3573 16.1307 22.7947 16.4613 23.104 16.888C23.4133 17.3147 23.568 17.8053 23.568 18.36C23.568 18.84 23.456 19.288 23.232 19.704C23.0187 20.1093 22.6293 20.52 22.064 20.936C21.5627 21.2987 21.2213 21.6187 21.04 21.896C20.8693 22.1733 20.7627 22.4293 20.72 22.664L20.624 23.192H18.944ZM18.304 27V24.088H21.264V27H18.304Z" fill="#F4F4F4"/>
</svg>
