<svg width="30" height="30" viewBox="0 0 30 30" fill="none" xmlns="http://www.w3.org/2000/svg">
<mask id="path-1-inside-1_10_2661" fill="white">
<path fill-rule="evenodd" clip-rule="evenodd" d="M18.4615 0H0V25.2H15.501L11.3899 20.3949C10.0057 18.777 10.0057 16.1539 11.3899 14.5361C12.7741 12.9182 15.0183 12.9182 16.4025 14.5361L18.4615 16.9427V0Z"/>
</mask>
<path d="M0 0V-1H-1V0H0ZM18.4615 0H19.4615V-1H18.4615V0ZM0 25.2H-1V26.2H0V25.2ZM15.501 25.2V26.2H17.6727L16.2609 24.5499L15.501 25.2ZM11.3899 20.3949L10.63 21.045L11.3899 20.3949ZM11.3899 14.5361L12.1497 15.1862L11.3899 14.5361ZM16.4025 14.5361L17.1624 13.886L16.4025 14.5361ZM18.4615 16.9427L17.7017 17.5928L19.4615 19.6497V16.9427H18.4615ZM0 1H18.4615V-1H0V1ZM1 25.2V0H-1V25.2H1ZM15.501 24.2H0V26.2H15.501V24.2ZM16.2609 24.5499L12.1497 19.7447L10.63 21.045L14.7412 25.8501L16.2609 24.5499ZM12.1497 19.7447C11.0857 18.5012 11.0857 16.4298 12.1497 15.1862L10.63 13.886C8.92564 15.8781 8.92563 19.0528 10.63 21.045L12.1497 19.7447ZM12.1497 15.1862C13.1348 14.0348 14.6576 14.0348 15.6427 15.1862L17.1624 13.886C15.379 11.8016 12.4134 11.8016 10.63 13.886L12.1497 15.1862ZM15.6427 15.1862L17.7017 17.5928L19.2214 16.2926L17.1624 13.886L15.6427 15.1862ZM17.4615 0V16.9427H19.4615V0H17.4615Z" fill="#080808" mask="url(#path-1-inside-1_10_2661)"/>
<mask id="path-3-inside-2_10_2661" fill="white">
<path fill-rule="evenodd" clip-rule="evenodd" d="M10.2662 13.3505C8.13866 15.2227 7.96338 18.5705 9.88289 20.6719L12.0757 23.0725L12.0455 23.1039L13.2237 24.3292L17.3077 28.8001L17.4292 28.7029L18.5726 29.8921L27.5474 20.5583C29.3499 18.6838 29.3499 15.6446 27.5474 13.7701C25.745 11.8955 22.8227 11.8955 21.0203 13.7701L18.8843 15.9915L16.9924 13.8168C15.2381 11.8003 12.2623 11.5941 10.2662 13.3505Z"/>
</mask>
<path d="M9.88289 20.6719L10.6212 19.9975V19.9975L9.88289 20.6719ZM10.2662 13.3505L10.9268 14.1013L10.2662 13.3505ZM12.0757 23.0725L12.7965 23.7656L13.4461 23.09L12.814 22.398L12.0757 23.0725ZM12.0455 23.1039L11.3247 22.4108L10.6582 23.1039L11.3247 23.797L12.0455 23.1039ZM13.2237 24.3292L13.962 23.6548L13.9534 23.6453L13.9445 23.6361L13.2237 24.3292ZM17.3077 28.8001L16.5693 29.4745L17.201 30.166L17.9324 29.5809L17.3077 28.8001ZM17.4292 28.7029L18.15 28.0098L17.5173 27.3518L16.8045 27.922L17.4292 28.7029ZM18.5726 29.8921L17.8518 30.5852L18.5726 31.3349L19.2935 30.5852L18.5726 29.8921ZM27.5474 20.5583L26.8266 19.8652L27.5474 20.5583ZM21.0203 13.7701L21.7411 14.4632L21.0203 13.7701ZM18.8843 15.9915L18.1299 16.6478L18.8474 17.4726L19.6052 16.6846L18.8843 15.9915ZM16.9924 13.8168L17.7468 13.1604V13.1604L16.9924 13.8168ZM10.6212 19.9975C9.0763 18.3062 9.22244 15.6011 10.9268 14.1013L9.60561 12.5998C7.05488 14.8443 6.85045 18.8349 9.14456 21.3463L10.6212 19.9975ZM12.814 22.398L10.6212 19.9975L9.14456 21.3463L11.3374 23.7469L12.814 22.398ZM11.3549 22.3793L11.3247 22.4108L12.7663 23.797L12.7965 23.7656L11.3549 22.3793ZM11.3247 23.797L12.5029 25.0223L13.9445 23.6361L12.7663 22.4108L11.3247 23.797ZM18.046 28.1256L13.962 23.6548L12.4854 25.0036L16.5693 29.4745L18.046 28.1256ZM16.8045 27.922L16.683 28.0192L17.9324 29.5809L18.0538 29.4837L16.8045 27.922ZM16.7083 29.396L17.8518 30.5852L19.2935 29.199L18.15 28.0098L16.7083 29.396ZM19.2935 30.5852L28.2683 21.2514L26.8266 19.8652L17.8518 29.199L19.2935 30.5852ZM28.2683 21.2514C30.4429 18.9898 30.4429 15.3386 28.2683 13.077L26.8266 14.4632C28.2568 15.9506 28.2568 18.3778 26.8266 19.8652L28.2683 21.2514ZM28.2683 13.077C26.0724 10.7932 22.4953 10.7932 20.2995 13.077L21.7411 14.4632C23.1501 12.9978 25.4176 12.9978 26.8266 14.4632L28.2683 13.077ZM20.2995 13.077L18.1635 15.2984L19.6052 16.6846L21.7411 14.4632L20.2995 13.077ZM16.2379 14.4731L18.1299 16.6478L19.6388 15.3351L17.7468 13.1604L16.2379 14.4731ZM10.9268 14.1013C12.5029 12.7144 14.8444 12.8713 16.2379 14.4731L17.7468 13.1604C15.6319 10.7294 12.0217 10.4738 9.60561 12.5998L10.9268 14.1013Z" fill="#080808" mask="url(#path-3-inside-2_10_2661)"/>
<path d="M3.46155 5.40002H14.4231" stroke="#080808"/>
<path d="M3.46155 9.59998H14.4231" stroke="#080808"/>
<path d="M3.46155 14.4H8.07693" stroke="#080808"/>
<path d="M3.46155 19.2H8.07693" stroke="#080808"/>
</svg>
